<?xml version="1.0" encoding="UTF-8" standalone="no"?>
<!DOCTYPE svg PUBLIC "-//W3C//DTD SVG 1.1//EN"
 "http://www.w3.org/Graphics/SVG/1.1/DTD/svg11.dtd">
<!-- Generated by graphviz version 16.1.0 (20260904.0139)
 -->
<!-- Title: ARCH Pages: 1 -->
<svg width="676pt" height="812pt"
 viewBox="0.00 0.00 676.00 812.00" xmlns="http://www.w3.org/2000/svg" xmlns:xlink="http://www.w3.org/1999/xlink">
<g id="graph0" class="graph" transform="scale(1 1) rotate(0) translate(4 807.75)">
<title>ARCH</title>
<polygon fill="white" stroke="none" points="-4,4 -4,-807.75 671.75,-807.75 671.75,4 -4,4"/>
<!-- client -->
<g id="node1" class="node">
<title>client</title>
<polygon fill="white" stroke="black" stroke-width="0" points="435.75,-803.75 300.5,-803.75 300.5,-717 435.75,-717 435.75,-803.75"/>
<polygon fill="white" stroke="none" points="300.5,-717 300.5,-803.75 435.75,-803.75 435.75,-717 300.5,-717"/>
<polygon fill="none" stroke="#2563eb" points="300.5,-717 300.5,-803.75 435.75,-803.75 435.75,-717 300.5,-717"/>
<polygon fill="#2563eb" stroke="none" points="301.5,-773.75 301.5,-802.75 434.75,-802.75 434.75,-773.75 301.5,-773.75"/>
<text xml:space="preserve" text-anchor="start" x="351.25" y="-786.3" font-family="Microsoft YaHei" font-weight="bold" font-size="11.00" fill="white">客户端</text>
<text xml:space="preserve" text-anchor="start" x="308.5" y="-754.75" font-family="Microsoft YaHei" font-size="11.00">浏览器（PC / 移动端）</text>
<polygon fill="#f8fafc" stroke="none" points="301.5,-718 301.5,-744.75 434.75,-744.75 434.75,-718 301.5,-718"/>
<text xml:space="preserve" text-anchor="start" x="308.5" y="-728" font-family="Microsoft YaHei" font-size="9.00" fill="#64748b">Chrome / Edge · 响应式布局</text>
</g>
<!-- front -->
<g id="node2" class="node">
<title>front</title>
<polygon fill="white" stroke="black" stroke-width="0" points="558.38,-646.25 177.88,-646.25 177.88,-530.5 558.38,-530.5 558.38,-646.25"/>
<polygon fill="white" stroke="none" points="177.88,-530.5 177.88,-646.25 558.38,-646.25 558.38,-530.5 177.88,-530.5"/>
<polygon fill="none" stroke="#2563eb" points="177.88,-530.5 177.88,-646.25 558.38,-646.25 558.38,-530.5 177.88,-530.5"/>
<polygon fill="#2563eb" stroke="none" points="178.88,-616.25 178.88,-645.25 557.38,-645.25 557.38,-616.25 178.88,-616.25"/>
<text xml:space="preserve" text-anchor="start" x="278.88" y="-628.8" font-family="Microsoft YaHei" font-weight="bold" font-size="11.00" fill="white">展示层 · 前端应用（Vue 3 + Vite）</text>
<text xml:space="preserve" text-anchor="start" x="185.88" y="-597.25" font-family="Microsoft YaHei" font-size="11.00">首页 / 排行榜</text>
<text xml:space="preserve" text-anchor="start" x="319.04" y="-597.25" font-family="Microsoft YaHei" font-size="11.00">专辑对决</text>
<text xml:space="preserve" text-anchor="start" x="430.46" y="-597.25" font-family="Microsoft YaHei" font-size="11.00">音乐人格测评</text>
<text xml:space="preserve" text-anchor="start" x="185.88" y="-568.25" font-family="Microsoft YaHei" font-size="11.00">结果分享图</text>
<text xml:space="preserve" text-anchor="start" x="319.04" y="-568.25" font-family="Microsoft YaHei" font-size="11.00">个人中心</text>
<text xml:space="preserve" text-anchor="start" x="430.46" y="-568.25" font-family="Microsoft YaHei" font-size="11.00">后台管理</text>
<polygon fill="#f8fafc" stroke="none" points="178.88,-531.5 178.88,-558.25 557.38,-558.25 557.38,-531.5 178.88,-531.5"/>
<text xml:space="preserve" text-anchor="start" x="185.88" y="-541.5" font-family="Microsoft YaHei" font-size="9.00" fill="#64748b">Pinia 状态管理 · Vue Router 路由 · Axios 请求 · Element Plus 组件 · html2canvas 分享图</text>
</g>
<!-- client&#45;&gt;front -->
<g id="edge1" class="edge">
<title>client&#45;&gt;front</title>
<path fill="none" stroke="#7a8a9e" d="M368.12,-717.35C368.12,-698.34 368.12,-675.44 368.12,-654.3"/>
<polygon fill="#7a8a9e" stroke="#7a8a9e" points="370.58,-654.5 368.13,-647.5 365.68,-654.5 370.58,-654.5"/>
<text xml:space="preserve" text-anchor="middle" x="401.12" y="-679.45" font-family="Microsoft YaHei" font-size="9.00"> HTTP / HTTPS </text>
</g>
<!-- back -->
<g id="node3" class="node">
<title>back</title>
<polygon fill="white" stroke="black" stroke-width="0" points="508.25,-459.75 228,-459.75 228,-344 508.25,-344 508.25,-459.75"/>
<polygon fill="white" stroke="none" points="228,-344 228,-459.75 508.25,-459.75 508.25,-344 228,-344"/>
<polygon fill="none" stroke="#059669" points="228,-344 228,-459.75 508.25,-459.75 508.25,-344 228,-344"/>
<polygon fill="#059669" stroke="none" points="229,-429.75 229,-458.75 507.25,-458.75 507.25,-429.75 229,-429.75"/>
<text xml:space="preserve" text-anchor="start" x="285.62" y="-442.3" font-family="Microsoft YaHei" font-weight="bold" font-size="11.00" fill="white">业务服务层 · Node.js + Express</text>
<text xml:space="preserve" text-anchor="start" x="236" y="-410.75" font-family="Microsoft YaHei" font-size="11.00">用户认证服务</text>
<text xml:space="preserve" text-anchor="start" x="317.5" y="-410.75" font-family="Microsoft YaHei" font-size="11.00">音乐数据代理与缓存</text>
<text xml:space="preserve" text-anchor="start" x="432.75" y="-410.75" font-family="Microsoft YaHei" font-size="11.00">对决业务服务</text>
<text xml:space="preserve" text-anchor="start" x="236" y="-381.75" font-family="Microsoft YaHei" font-size="11.00">测评业务服务</text>
<text xml:space="preserve" text-anchor="start" x="317.5" y="-381.75" font-family="Microsoft YaHei" font-size="11.00">榜单统计服务</text>
<text xml:space="preserve" text-anchor="start" x="432.75" y="-381.75" font-family="Microsoft YaHei" font-size="11.00">后台管理服务</text>
<polygon fill="#f8fafc" stroke="none" points="229,-345 229,-371.75 507.25,-371.75 507.25,-345 229,-345"/>
<text xml:space="preserve" text-anchor="start" x="236" y="-355" font-family="Microsoft YaHei" font-size="9.00" fill="#64748b">JWT 鉴权 · bcrypt 加密 · 输入校验 · 统一响应中间件</text>
</g>
<!-- front&#45;&gt;back -->
<g id="edge2" class="edge">
<title>front&#45;&gt;back</title>
<path fill="none" stroke="#7a8a9e" d="M368.12,-530.51C368.12,-510.69 368.12,-488.3 368.12,-467.87"/>
<polygon fill="#7a8a9e" stroke="#7a8a9e" points="370.58,-468.06 368.13,-461.06 365.68,-468.06 370.58,-468.06"/>
<text xml:space="preserve" text-anchor="middle" x="423.25" y="-492.95" font-family="Microsoft YaHei" font-size="9.00"> REST API（JSON）· JWT </text>
</g>
<!-- data -->
<g id="node4" class="node">
<title>data</title>
<polygon fill="white" stroke="black" stroke-width="0" points="386.25,-258.75 2,-258.75 2,-172 386.25,-172 386.25,-258.75"/>
<polygon fill="white" stroke="none" points="2,-172 2,-258.75 386.25,-258.75 386.25,-172 2,-172"/>
<polygon fill="none" stroke="#d97706" points="2,-172 2,-258.75 386.25,-258.75 386.25,-172 2,-172"/>
<polygon fill="#d97706" stroke="none" points="3,-228.75 3,-257.75 385.25,-257.75 385.25,-228.75 3,-228.75"/>
<text xml:space="preserve" text-anchor="start" x="177.25" y="-241.3" font-family="Microsoft YaHei" font-weight="bold" font-size="11.00" fill="white">数据层</text>
<text xml:space="preserve" text-anchor="start" x="10" y="-209.75" font-family="Microsoft YaHei" font-size="11.00">MongoDB（Mongoose 建模，12 张集合）</text>
<polygon fill="#f8fafc" stroke="none" points="3,-173 3,-199.75 385.25,-199.75 385.25,-173 3,-173"/>
<text xml:space="preserve" text-anchor="start" x="10" y="-183" font-family="Microsoft YaHei" font-size="9.00" fill="#64748b">用户 / 收藏 / 分享图 / 歌手 / 专辑 / 曲目 / 对决 / 场次 / 投票 / 题目 / 人格类型 / 测评结果</text>
</g>
<!-- back&#45;&gt;data -->
<g id="edge3" class="edge">
<title>back&#45;&gt;data</title>
<path fill="none" stroke="#7a8a9e" d="M314.5,-344.01C290.57,-318.64 262.66,-289.05 239.75,-264.75"/>
<polygon fill="#7a8a9e" stroke="#7a8a9e" points="241.66,-263.2 235.07,-259.79 238.09,-266.57 241.66,-263.2"/>
<text xml:space="preserve" text-anchor="middle" x="326.47" y="-306.45" font-family="Microsoft YaHei" font-size="9.00"> Mongoose ODM </text>
</g>
<!-- ext -->
<g id="node5" class="node">
<title>ext</title>
<polygon fill="white" stroke="black" stroke-width="0" points="667.75,-273.25 418.5,-273.25 418.5,-157.5 667.75,-157.5 667.75,-273.25"/>
<polygon fill="white" stroke="none" points="418.5,-157.5 418.5,-273.25 667.75,-273.25 667.75,-157.5 418.5,-157.5"/>
<polygon fill="none" stroke="#7c3aed" points="418.5,-157.5 418.5,-273.25 667.75,-273.25 667.75,-157.5 418.5,-157.5"/>
<polygon fill="#7c3aed" stroke="none" points="419.5,-243.25 419.5,-272.25 666.75,-272.25 666.75,-243.25 419.5,-243.25"/>
<text xml:space="preserve" text-anchor="start" x="520.62" y="-255.8" font-family="Microsoft YaHei" font-weight="bold" font-size="11.00" fill="white">外部服务</text>
<text xml:space="preserve" text-anchor="start" x="426.5" y="-224.25" font-family="Microsoft YaHei" font-size="11.00">iTunes Search API（音乐元数据 + 30 秒试听）</text>
<text xml:space="preserve" text-anchor="start" x="426.5" y="-195.25" font-family="Microsoft YaHei" font-size="11.00">大语言模型接口（人格解读文案生成）</text>
<polygon fill="#f8fafc" stroke="none" points="419.5,-158.5 419.5,-185.25 666.75,-185.25 666.75,-158.5 419.5,-158.5"/>
<text xml:space="preserve" text-anchor="start" x="426.5" y="-168.5" font-family="Microsoft YaHei" font-size="9.00" fill="#64748b">免密钥 · 无版权风险 · 可公开部署</text>
</g>
<!-- back&#45;&gt;ext -->
<g id="edge4" class="edge">
<title>back&#45;&gt;ext</title>
<path fill="none" stroke="#7a8a9e" stroke-dasharray="5,2" d="M422.06,-344.01C441.53,-323.49 463.61,-300.21 483.54,-279.2"/>
<polygon fill="#7a8a9e" stroke="#7a8a9e" points="485.29,-280.91 488.33,-274.15 481.73,-277.54 485.29,-280.91"/>
<text xml:space="preserve" text-anchor="middle" x="504.75" y="-306.45" font-family="Microsoft YaHei" font-size="9.00"> 外部调用（HTTPS） </text>
</g>
<!-- dep -->
<g id="node6" class="node">
<title>dep</title>
<polygon fill="white" stroke="black" stroke-width="0" points="388.25,-86.75 0,-86.75 0,0 388.25,0 388.25,-86.75"/>
<polygon fill="white" stroke="none" points="0,0 0,-86.75 388.25,-86.75 388.25,0 0,0"/>
<polygon fill="none" stroke="#64748b" points="0,0 0,-86.75 388.25,-86.75 388.25,0 0,0"/>
<polygon fill="#64748b" stroke="none" points="1,-56.75 1,-85.75 387.25,-85.75 387.25,-56.75 1,-56.75"/>
<text xml:space="preserve" text-anchor="start" x="171.62" y="-69.3" font-family="Microsoft YaHei" font-weight="bold" font-size="11.00" fill="white">部署方案</text>
<text xml:space="preserve" text-anchor="start" x="8" y="-37.75" font-family="Microsoft YaHei" font-size="11.00">前端 → 静态托管平台</text>
<text xml:space="preserve" text-anchor="start" x="129.25" y="-37.75" font-family="Microsoft YaHei" font-size="11.00">后端 → 云应用托管平台</text>
<text xml:space="preserve" text-anchor="start" x="261.75" y="-37.75" font-family="Microsoft YaHei" font-size="11.00">数据库 → 云数据库服务</text>
<polygon fill="#f8fafc" stroke="none" points="1,-1 1,-27.75 387.25,-27.75 387.25,-1 1,-1"/>
<text xml:space="preserve" text-anchor="start" x="8" y="-11" font-family="Microsoft YaHei" font-size="9.00" fill="#64748b">三端独立部署，提供可公开访问的线上地址</text>
</g>
<!-- data&#45;&gt;dep -->
<g id="edge5" class="edge">
<title>data&#45;&gt;dep</title>
<path fill="none" stroke="#7a8a9e" d="M194.12,-172.35C194.12,-148.96 194.12,-119.67 194.12,-95.01"/>
<polygon fill="#7a8a9e" stroke="#7a8a9e" points="196.58,-95.02 194.13,-88.02 191.68,-95.02 196.58,-95.02"/>
<text xml:space="preserve" text-anchor="middle" x="206.12" y="-119.95" font-family="Microsoft YaHei" font-size="9.00"> 部署 </text>
</g>
</g>
</svg>
